<?xml version="1.0" encoding="UTF-8"?>
<svg width="32" height="32" viewBox="0 0 32 32" fill="none" xmlns="http://www.w3.org/2000/svg">
  <rect width="32" height="32" rx="4" fill="url(#paint0_linear)"/>
  <path d="M10.144 22V10.4H17.552V12.832H13.04V15.136H17.12V17.568H13.04V22H10.144ZM18.4283 22V10.4H23.6443C24.4283 10.4 25.0763 10.56 25.5883 10.88C26.1003 11.1893 26.4816 11.6053 26.7323 12.128C26.9936 12.64 27.1243 13.216 27.1243 13.856C27.1243 14.496 26.9936 15.0773 26.7323 15.6C26.4816 16.112 26.1003 16.5227 25.5883 16.832C25.0763 17.1413 24.4283 17.296 23.6443 17.296H21.3243V22H18.4283ZM21.3243 14.864H23.1643C23.4736 14.864 23.7136 14.7867 23.8843 14.632C24.0656 14.4667 24.1563 14.2133 24.1563 13.872C24.1563 13.5307 24.0656 13.2827 23.8843 13.128C23.7136 12.9627 23.4736 12.88 23.1643 12.88H21.3243V14.864Z" fill="white"/>
  <defs>
    <linearGradient id="paint0_linear" x1="0" y1="0" x2="32" y2="32" gradientUnits="userSpaceOnUse">
      <stop stop-color="#2563EB"/>
      <stop offset="1" stop-color="#E11D48"/>
    </linearGradient>
  </defs>
</svg>
